<svg width="86" height="89" viewBox="0 0 86 89" fill="none" xmlns="http://www.w3.org/2000/svg">
<path d="M17.2282 15.9444L5.0123 19.8704L11.4484 24.536L20.1428 27.0785L22.9567 26.1872L23.8425 27.0786L20.7477 28.0596L18.8395 36.7388L22.2204 36.5576L17.7012 38.7774L11.8549 33.9116L11.7459 33.7954L7.412 33.2844L12.3492 32.3725L17.688 36.6741L19.5786 28.075L11.0268 25.5758L10.9315 25.5482L10.8509 25.4893L4.3361 20.7651L1.4669 33.8151L2.48009 35.9626L7.10029 38.2128L8.67731 37.2463L8.96151 39.1188L16.3582 42.7226L17.0271 39.6802L17.2513 39.8664L17.5397 40.1063L17.8767 39.9388L18.1673 39.796L17.4988 42.8366L29.7354 38.9226L30.9711 33.3022L29.6573 32.2999L31.6204 30.3491L32.9755 24.1857L26.9245 26.1024L26.4223 28.0764L21.9278 23.552L26.925 24.9304L32.2553 23.2414L21.8322 18.1797L21.9218 18.2329L18.0077 17.7627L18.5948 16.6091L17.2283 15.9444L17.2282 15.9444Z" fill="#E1E1E6" fill-opacity="0.05"/>
<path d="M80.2856 51.3098L54.91 46.4312C54.1315 46.2815 53.3761 46.7775 53.2231 47.5386L49.8968 64.0804C49.7438 64.8416 50.251 65.5803 51.0294 65.7299L76.405 70.6086C77.1835 70.7582 77.9389 70.2623 78.0919 69.5011L81.4182 52.9593C81.5712 52.1982 81.064 51.4595 80.2856 51.3098ZM58.691 60.3966L58.5513 61.091C58.5131 61.2814 58.3243 61.4053 58.1296 61.3679L57.4247 61.2324C57.23 61.195 57.1033 61.0104 57.1416 60.82L57.2827 60.1183C56.7903 59.9977 56.3407 59.7349 55.999 59.3636C55.8526 59.2044 55.8944 58.9511 56.0791 58.8359L56.6938 58.4525C56.8387 58.3622 57.0212 58.3919 57.1464 58.5068C57.2959 58.6439 57.4781 58.737 57.679 58.7757L58.9173 59.0138C59.2037 59.0688 59.4885 58.8587 59.5514 58.5455C59.603 58.2892 59.4893 58.0329 59.2753 57.9228L57.4098 56.9602C56.6392 56.5623 56.2214 55.6838 56.3944 54.8235C56.6068 53.7673 57.6186 53.0705 58.6646 53.2434L58.8043 52.549C58.8425 52.3586 59.0313 52.2347 59.226 52.2722L59.9309 52.4077C60.1256 52.4451 60.2523 52.6297 60.214 52.8201L60.0729 53.5218C60.5653 53.6424 61.0149 53.9047 61.3566 54.2764C61.503 54.4357 61.4613 54.689 61.2765 54.8042L60.6618 55.1876C60.5169 55.2779 60.3344 55.2481 60.2092 55.1332C60.0598 54.9958 59.8775 54.903 59.6766 54.8644L58.4383 54.6263C58.1519 54.5713 57.8671 54.7814 57.8042 55.0946C57.7526 55.3509 57.8663 55.6072 58.0803 55.7172L59.9458 56.6799C60.7164 57.0778 61.1342 57.9563 60.9612 58.8165C60.7487 59.8732 59.737 60.5696 58.691 60.3966ZM69.4017 61.7453C69.3634 61.9357 69.1747 62.0596 68.98 62.0222L64.0458 61.0736C63.8511 61.0361 63.7244 60.8516 63.7627 60.6612L63.9013 59.9719C63.9396 59.7815 64.1283 59.6576 64.323 59.6951L69.2571 60.6437C69.4519 60.6811 69.5786 60.8657 69.5403 61.0561L69.4017 61.7453ZM76.4505 63.1005C76.4122 63.2909 76.2235 63.4148 76.0287 63.3774L72.5043 62.6998C72.3096 62.6623 72.1829 62.4778 72.2212 62.2874L72.3598 61.5982C72.3981 61.4078 72.5868 61.2839 72.7815 61.3213L76.3059 61.9989C76.5006 62.0363 76.6273 62.2209 76.5891 62.4113L76.4505 63.1005ZM77.282 58.9651C77.2437 59.1555 77.055 59.2794 76.8603 59.2419L64.8774 56.9381C64.6826 56.9007 64.5559 56.7161 64.5942 56.5257L64.7328 55.8365C64.7711 55.6461 64.9598 55.5222 65.1546 55.5596L77.1375 57.8634C77.3322 57.9009 77.4589 58.0854 77.4206 58.2758L77.282 58.9651Z" fill="#E1E1E6" fill-opacity="0.05"/>
<path d="M30.655 58.8531C20.9164 67.0326 15.6342 80.3538 14.2058 88.1907L19.3014 88.1689C21.3512 80.2558 22.5998 71.1522 30.655 58.853L30.655 58.8531ZM5.38344 62.3447C8.85925 66.3819 12.1731 70.8624 14.8178 75.1634C15.3029 75.9527 15.7642 76.735 16.2015 77.5068C16.7129 76.2668 17.2808 75.0052 17.9067 73.7387C14.4667 69.1572 10.3802 65.0594 5.38337 62.3448L5.38344 62.3447ZM31.2366 70.8628C27.8457 73.8777 26.0659 78.2703 25.3133 83.1906C26.2298 84.8538 27.0903 86.493 27.9046 88.0756L30.5029 88.0645C28.8161 83.4605 29.6948 77.5912 31.2366 70.8628ZM4.67581 71.9664C9.51173 76.673 12.7015 84.102 10.0336 88.1257L13.0031 88.113C13.2925 86.4909 13.736 84.6491 14.344 82.6709C13.1026 77.2373 8.92762 72.1089 4.67581 71.9666L4.67581 71.9664ZM2.53176 77.6499C6.05391 82.8575 6.63974 85.6961 5.28018 88.1301L9.73452 88.1111C8.84927 83.4676 7.62596 80.6152 2.53176 77.65L2.53176 77.6499ZM22.4039 80.507C21.713 83.1789 21.1609 85.7028 20.5366 88.1454L26.5892 88.1195C25.3149 85.6545 23.9323 83.0725 22.4038 80.507L22.4039 80.507Z" fill="#E1E1E6" fill-opacity="0.05"/>
<path d="M75.4215 1.53809L61.4009 4.61584C60.2452 4.86935 59.1716 5.39834 58.2756 6.15572C57.3797 6.91309 56.6891 7.87534 56.2654 8.95681C55.8418 10.0383 55.6981 11.2054 55.8474 12.3543C55.9966 13.5031 56.434 14.5981 57.1207 15.5417C57.8073 16.4853 58.722 17.2482 59.7831 17.7625C60.8443 18.2768 62.019 18.5266 63.2028 18.4896C64.3866 18.4526 65.5426 18.13 66.568 17.5505C67.5934 16.9709 68.4563 16.1525 69.08 15.1679L73.089 14.2879C74.0831 14.9172 75.2209 15.2964 76.4011 15.3918C77.5813 15.4872 78.7673 15.2958 79.8536 14.8347C80.9399 14.3735 81.8927 13.6569 82.6273 12.7486C83.3618 11.8403 83.8553 10.7685 84.0638 9.62866C84.2724 8.48878 84.1895 7.31618 83.8225 6.21522C83.4555 5.11425 82.8158 4.11909 81.9604 3.3183C81.105 2.5175 80.0604 1.93593 78.9196 1.62534C77.7787 1.31475 76.577 1.28477 75.4215 1.53809ZM66.9472 11.1369C66.9785 11.2733 66.9531 11.4161 66.8766 11.5342C66.8002 11.6522 66.6789 11.7357 66.5395 11.7663L64.2617 12.2663L64.773 14.4937C64.8043 14.63 64.779 14.7729 64.7025 14.8909C64.6261 15.0089 64.5048 15.0925 64.3654 15.1231L63.3141 15.3538C63.1747 15.3844 63.0285 15.3596 62.9078 15.2849C62.7871 15.2101 62.7017 15.0916 62.6704 14.9552L62.159 12.7279L59.8812 13.2279C59.7418 13.2585 59.5956 13.2337 59.4749 13.159C59.3542 13.0842 59.2688 12.9656 59.2375 12.8293L59.0015 11.8013C58.9702 11.665 58.9956 11.5221 59.072 11.4041C59.1485 11.2861 59.2697 11.2026 59.4091 11.1719L61.687 10.6719L61.1756 8.4446C61.1443 8.30828 61.1697 8.16539 61.2461 8.04735C61.3226 7.92932 61.4439 7.84582 61.5833 7.81521L62.6346 7.58443C62.774 7.55383 62.9201 7.57863 63.0409 7.65339C63.1616 7.72814 63.247 7.84672 63.2783 7.98304L63.7896 10.2104L66.0675 9.71033C66.2069 9.67973 66.353 9.70453 66.4737 9.77929C66.5945 9.85404 66.6798 9.97262 66.7111 10.1089L66.9472 11.1369ZM77.1564 12.3152C76.8098 12.3913 76.448 12.3652 76.1166 12.2402C75.7853 12.1152 75.4992 11.8969 75.2947 11.6129C75.0903 11.329 74.9765 10.9921 74.9678 10.6449C74.9591 10.2977 75.0559 9.95577 75.2459 9.66237C75.4359 9.36897 75.7107 9.13725 76.0354 8.99653C76.3601 8.85581 76.7202 8.8124 77.0701 8.8718C77.4201 8.93119 77.7442 9.09072 78.0014 9.33021C78.2586 9.5697 78.4374 9.8784 78.5152 10.2173C78.6195 10.6717 78.535 11.148 78.2802 11.5414C78.0253 11.9349 77.6211 12.2132 77.1564 12.3152ZM79.0158 7.58783C78.6693 7.6639 78.3074 7.63778 77.9761 7.51277C77.6447 7.38776 77.3587 7.16948 77.1542 6.88552C76.9497 6.60156 76.8359 6.26469 76.8272 5.91749C76.8185 5.5703 76.9153 5.22838 77.1053 4.93498C77.2954 4.64157 77.5701 4.40986 77.8948 4.26914C78.2195 4.12842 78.5796 4.08501 78.9296 4.1444C79.2795 4.2038 79.6036 4.36333 79.8608 4.60282C80.118 4.84231 80.2969 5.151 80.3747 5.48987C80.479 5.94427 80.3944 6.42058 80.1396 6.81403C79.8848 7.20747 79.4805 7.48581 79.0158 7.58783Z" fill="#E1E1E6" fill-opacity="0.05"/>
</svg>
