<svg width="410" height="391" viewBox="0 0 410 391" fill="none" xmlns="http://www.w3.org/2000/svg">
<rect x="57" y="343" width="295" height="48" rx="24" fill="#666666"/>
<rect x="32" y="331" width="345" height="48" rx="24" fill="#444444"/>
<rect width="410" height="363" rx="30" fill="#222222"/>
<g clip-path="url(#clip0)">
<path d="M213 192H410V333C410 349.569 396.569 363 380 363H213V192Z" fill="#222222"/>
<rect x="271.392" y="214.386" width="279" height="163" rx="10.5" transform="rotate(-6.0064 271.392 214.386)" stroke="#C6BFDF"/>
<rect x="242.933" y="266.519" width="279" height="163" rx="10.5" transform="rotate(-21.636 242.933 266.519)" stroke="#CFC7E9"/>
<rect x="242.68" y="336.352" width="279" height="163" rx="10.5" transform="rotate(-29.1838 242.68 336.352)" stroke="#CFC7E9"/>
</g>
<defs>
<clipPath id="clip0">
<path d="M213 192H410V333C410 349.569 396.569 363 380 363H213V192Z" fill="white"/>
</clipPath>
</defs>
</svg>
